<?xml version="1.0" encoding="UTF-8"?><svg id="a" xmlns="http://www.w3.org/2000/svg" xmlns:xlink="http://www.w3.org/1999/xlink" viewBox="0 0 400 111.91"><defs><style>.i{fill:#00f1a9;}.i,.j,.k,.l,.m,.n,.o,.p,.q{stroke-width:0px;}.j{fill:#306998;}.k{fill:url(#b);}.l{fill:url(#c);}.m{fill:url(#e);}.n{fill:url(#f);}.o{fill:url(#d);}.p{fill:url(#h);}.q{fill:url(#g);}</style><linearGradient id="b" x1="536.39" y1="3" x2="524.73" y2="3" gradientTransform="translate(-508.57 6) scale(1 -1)" gradientUnits="userSpaceOnUse"><stop offset="0" stop-color="#66f7cb"/><stop offset="1" stop-color="#00f1a9"/></linearGradient><linearGradient id="c" x1="2641.2" y1="-657.08" x2="2683.18" y2="-657.08" gradientTransform="translate(-2640.2 731.25)" xlink:href="#b"/><linearGradient id="d" x1="2641.2" y1="-671.51" x2="2683.18" y2="-671.51" gradientTransform="translate(-2640.2 731.25)" xlink:href="#b"/><linearGradient id="e" x1="2641.2" y1="-685.94" x2="2683.18" y2="-685.94" gradientTransform="translate(-2640.2 731.25)" xlink:href="#b"/><linearGradient id="f" x1="2641.2" y1="-706.93" x2="2683.18" y2="-706.93" gradientTransform="translate(-2640.2 731.25)" xlink:href="#b"/><linearGradient id="g" x1="2641.2" y1="-642.65" x2="2683.18" y2="-642.65" gradientTransform="translate(-2640.2 731.25)" xlink:href="#b"/><linearGradient id="h" x1="2641.2" y1="-628.21" x2="2683.18" y2="-628.21" gradientTransform="translate(-2640.2 731.25)" xlink:href="#b"/></defs><path class="i" d="M111.72,17.71c10.71,0,19.7,8.63,19.62,21.7,0,13.16-8.98,21.7-19.62,21.7h-20.12v23.53h-11.67V17.71h31.79ZM119.7,39.38c.04-7.83-4.17-11.96-8.73-11.96h-19.36v23.99h19.36c4.52,0,8.73-4.09,8.73-12.04h0Z"/><path class="i" d="M161.81,103.78h-9.88s7.63-19.28,7.63-19.28l-21.05-47.65h11.68l14.5,34.71,13.73-34.71h11.25l-27.85,66.94Z"/><path class="i" d="M252.9,65.11c0,11.84-9.25,19.53-20.7,19.53h-20.3s-11.67.01-11.67.01V17.71h28.81c10.59,0,19.1,7.13,19.03,17.95,0,5.83-2.75,10.42-6.98,13.15,6.96,2.28,11.86,8.23,11.81,16.31ZM211.9,45.2h15.61c4.9,0,8.58-3.25,8.58-8.98.04-5.7-3.63-8.98-8.58-8.98h-15.61v17.96ZM230.94,54.55h-19.05v20.56h19.05c5.66,0,9.96-3.77,9.96-10.33.04-6.43-4.26-10.23-9.96-10.23Z"/><path class="i" d="M331.61,51.18c0,19.25-13.2,34.81-33.55,34.81s-33.55-15.56-33.55-34.81,13.34-34.81,33.55-34.81,33.55,15.56,33.55,34.81ZM298.02,27.01c-12.76,0-21.46,10.07-21.46,24.16s8.72,24.17,21.5,24.17,21.5-10.16,21.5-24.17-8.65-24.16-21.54-24.16h0Z"/><path class="i" d="M379.38,17.71c10.71,0,19.7,8.63,19.62,21.7,0,13.16-8.98,21.7-19.62,21.7h-20.12v23.53h-11.67V17.71h31.79ZM387.35,39.38c.04-7.83-4.17-11.96-8.73-11.96h-19.36v23.99h19.36c4.52,0,8.73-4.09,8.73-12.04h0Z"/><rect class="j" x="1" y="95.17" width="41.98" height="2.62"/><rect class="j" x="1" y="79.42" width="41.98" height="5.25"/><rect class="j" x="1" y="63.68" width="41.98" height="7.87"/><rect class="j" x="1" y="47.94" width="41.98" height="10.5"/><rect class="j" x="1" y="32.19" width="41.98" height="13.12"/><rect class="k" x="16.16" y="1" width="11.66" height="4" transform="translate(43.98 6) rotate(-180)"/><polygon class="l" points="42.98 71.55 1 84.67 1 79.42 42.98 63.68 42.98 71.55"/><polygon class="o" points="42.98 58.43 1 71.55 1 63.68 42.98 47.94 42.98 58.43"/><polygon class="m" points="42.98 45.31 1 58.43 1 47.94 42.98 32.19 42.98 45.31"/><polygon class="n" points="42.98 32.19 1 45.31 1 3.33 42.98 3.33 42.98 32.19"/><polygon class="q" points="42.98 84.67 1 97.79 1 95.17 42.98 79.42 42.98 84.67"/><polygon class="p" points="42.98 97.79 1 110.91 42.98 95.17 42.98 97.79"/></svg>
