<?xml version="1.0" encoding="UTF-8"?><svg id="a" xmlns="http://www.w3.org/2000/svg" viewBox="0 0 43.98 111.91"><defs><style>.b{fill:#00f1a9;stroke-width:0px;}</style></defs><polygon class="b" points="1 84.67 42.98 71.55 42.98 63.68 1 79.42 1 84.67"/><polygon class="b" points="1 71.55 42.98 58.43 42.98 47.94 1 63.68 1 71.55"/><polygon class="b" points="1 58.43 42.98 45.31 42.98 32.19 1 47.94 1 58.43"/><polygon class="b" points="27.82 3.33 27.82 1 16.16 1 16.16 3.33 1 3.33 1 45.31 42.98 32.19 42.98 3.33 27.82 3.33"/><polygon class="b" points="1 97.79 42.98 84.67 42.98 79.42 1 95.17 1 97.79"/><polygon class="b" points="42.98 97.79 42.98 95.17 1 110.91 42.98 97.79"/></svg>
