<?xml version="1.0" encoding="UTF-8"?><svg id="a" xmlns="http://www.w3.org/2000/svg" xmlns:xlink="http://www.w3.org/1999/xlink" viewBox="0 0 43.98 111.91"><defs><style>.i{fill:#00f1a9;}.i,.j,.k,.l,.m,.n,.o,.p{stroke-width:0px;}.j{fill:url(#b);}.k{fill:url(#c);}.l{fill:url(#e);}.m{fill:url(#f);}.n{fill:url(#d);}.o{fill:url(#h);}.p{fill:url(#g);}</style><linearGradient id="b" x1="1594.39" y1="3" x2="1582.73" y2="3" gradientTransform="translate(-1566.57 6) scale(1 -1)" gradientUnits="userSpaceOnUse"><stop offset="0" stop-color="#5a9fd4"/><stop offset="1" stop-color="#306998"/></linearGradient><linearGradient id="c" x1="2641.2" y1="-657.08" x2="2683.18" y2="-657.08" gradientTransform="translate(-2640.2 731.25)" gradientUnits="userSpaceOnUse"><stop offset="0" stop-color="#5a9fd4"/><stop offset="1" stop-color="#306998"/></linearGradient><linearGradient id="d" x1="2641.2" y1="-671.51" x2="2683.18" y2="-671.51" xlink:href="#c"/><linearGradient id="e" x1="2641.2" y1="-685.94" x2="2683.18" y2="-685.94" xlink:href="#c"/><linearGradient id="f" x1="2641.2" y1="-706.93" x2="2683.18" y2="-706.93" xlink:href="#c"/><linearGradient id="g" x1="2641.2" y1="-642.65" x2="2683.18" y2="-642.65" xlink:href="#c"/><linearGradient id="h" x1="2641.2" y1="-628.21" x2="2683.18" y2="-628.21" xlink:href="#c"/></defs><rect class="j" x="16.16" y="1" width="11.66" height="4" transform="translate(43.98 6) rotate(-180)"/><rect class="i" x="1" y="95.17" width="41.98" height="2.62"/><rect class="i" x="1" y="79.42" width="41.98" height="5.25"/><rect class="i" x="1" y="63.68" width="41.98" height="7.87"/><rect class="i" x="1" y="47.94" width="41.98" height="10.5"/><rect class="i" x="1" y="32.19" width="41.98" height="13.12"/><polygon class="k" points="42.98 71.55 1 84.67 1 79.42 42.98 63.68 42.98 71.55"/><polygon class="n" points="42.98 58.43 1 71.55 1 63.68 42.98 47.94 42.98 58.43"/><polygon class="l" points="42.98 45.31 1 58.43 1 47.94 42.98 32.19 42.98 45.31"/><polygon class="m" points="42.98 32.19 1 45.31 1 3.33 42.98 3.33 42.98 32.19"/><polygon class="p" points="42.98 84.67 1 97.79 1 95.17 42.98 79.42 42.98 84.67"/><polygon class="o" points="42.98 97.79 1 110.91 42.98 95.17 42.98 97.79"/></svg>
