<?xml version="1.0" encoding="UTF-8"?><svg id="a" xmlns="http://www.w3.org/2000/svg" viewBox="0 0 400 111.91"><defs><style>.b{fill:none;}.b,.c{stroke-width:0px;}.c{fill:#00f1a9;}</style></defs><path class="b" d="M236.08,36.22c.04-5.7-3.63-8.98-8.58-8.98h-15.61v17.96h15.61c4.9,0,8.58-3.25,8.58-8.98Z"/><path class="b" d="M230.94,54.55h-19.05v20.56h19.05c5.66,0,9.96-3.77,9.96-10.33.04-6.43-4.26-10.23-9.96-10.23Z"/><path class="b" d="M298.02,27.01h0c-12.76,0-21.46,10.07-21.46,24.16s8.72,24.17,21.5,24.17,21.5-10.16,21.5-24.17-8.65-24.16-21.54-24.16Z"/><path class="b" d="M378.62,27.43h-19.36v23.99h19.36c4.52,0,8.73-4.09,8.73-12.03.04-7.83-4.17-11.95-8.73-11.95Z"/><path class="b" d="M110.97,27.43h-19.36v23.99h19.36c4.52,0,8.73-4.09,8.73-12.03.04-7.83-4.17-11.95-8.73-11.95Z"/><path class="c" d="M111.72,17.71h-31.79v66.94h11.67v-23.53h20.12c10.64,0,19.62-8.54,19.62-21.7.07-13.07-8.91-21.7-19.62-21.7ZM110.97,51.42h-19.36v-23.99h19.36c4.56,0,8.77,4.13,8.73,11.95,0,7.95-4.21,12.03-8.73,12.03Z"/><polygon class="c" points="164.68 71.54 150.18 36.84 138.51 36.84 159.56 84.49 151.93 103.79 161.81 103.78 189.66 36.84 178.41 36.84 164.68 71.54"/><path class="c" d="M241.09,48.81c4.23-2.73,6.98-7.32,6.98-13.15.07-10.81-8.43-17.95-19.03-17.95h-28.81v66.94h11.67s20.3-.01,20.3-.01c11.45,0,20.7-7.68,20.7-19.53.05-8.07-4.85-14.02-11.81-16.31ZM211.9,27.24h15.61c4.94,0,8.61,3.28,8.58,8.98,0,5.73-3.67,8.98-8.58,8.98h-15.61v-17.96ZM230.94,75.11h-19.05v-20.56h19.05c5.7,0,10.01,3.81,9.96,10.23,0,6.56-4.31,10.33-9.96,10.33Z"/><path class="c" d="M298.06,16.37c-20.21,0-33.55,15.43-33.55,34.81s13.34,34.81,33.55,34.81,33.55-15.56,33.55-34.81-13.2-34.81-33.55-34.81ZM298.06,75.35c-12.78,0-21.5-10.17-21.5-24.17s8.69-24.16,21.46-24.16h0c12.89,0,21.54,10.14,21.54,24.16s-8.65,24.17-21.5,24.17Z"/><path class="c" d="M379.38,17.71h-31.79v66.94h11.67v-23.53h20.12c10.64,0,19.62-8.54,19.62-21.7.07-13.07-8.91-21.7-19.62-21.7ZM378.62,51.42h-19.36v-23.99h19.36c4.56,0,8.77,4.13,8.73,11.95,0,7.95-4.21,12.03-8.73,12.03Z"/><polygon class="c" points="1 84.67 42.98 71.55 42.98 63.68 1 79.42 1 84.67"/><polygon class="c" points="1 71.55 42.98 58.43 42.98 47.94 1 63.68 1 71.55"/><polygon class="c" points="1 58.43 42.98 45.31 42.98 32.19 1 47.94 1 58.43"/><polygon class="c" points="1 97.79 42.98 84.67 42.98 79.42 1 95.17 1 97.79"/><polygon class="c" points="42.98 97.79 42.98 95.17 1 110.91 42.98 97.79"/><polygon class="c" points="27.82 1 16.16 1 16.16 3.33 1 3.33 1 45.31 42.98 32.19 42.98 3.33 27.82 3.33 27.82 1"/></svg>
