<?xml version="1.0" encoding="UTF-8"?><svg id="a" xmlns="http://www.w3.org/2000/svg" xmlns:xlink="http://www.w3.org/1999/xlink" viewBox="0 0 150 150"><defs><style>.j{fill:#00f1a9;}.j,.k,.l,.m,.n,.o,.p,.q,.r{stroke-width:0px;}.k{fill:url(#b);}.l{fill:url(#c);}.m{fill:url(#e);}.n{fill:url(#f);}.o{fill:url(#d);}.p{fill:url(#i);}.q{fill:url(#h);}.r{fill:url(#g);}</style><radialGradient id="b" cx="75" cy="75" fx="75" fy="75" r="74" gradientUnits="userSpaceOnUse"><stop offset="0" stop-color="#fff"/><stop offset="1" stop-color="#ccfcee"/></radialGradient><linearGradient id="c" x1="1412.42" y1="36" x2="1402.76" y2="36" gradientTransform="translate(-1332.59 72) scale(1 -1)" gradientUnits="userSpaceOnUse"><stop offset="0" stop-color="#5a9fd4"/><stop offset="1" stop-color="#306998"/></linearGradient><linearGradient id="d" x1="2697.82" y1="-636.17" x2="2732.58" y2="-636.17" gradientTransform="translate(-2640.2 731.25)" gradientUnits="userSpaceOnUse"><stop offset="0" stop-color="#5a9fd4"/><stop offset="1" stop-color="#306998"/></linearGradient><linearGradient id="e" x1="2697.82" y1="-648.12" x2="2732.58" y2="-648.12" xlink:href="#d"/><linearGradient id="f" x1="2697.82" y1="-660.06" x2="2732.58" y2="-660.06" xlink:href="#d"/><linearGradient id="g" x1="2697.82" y1="-677.44" x2="2732.58" y2="-677.44" xlink:href="#d"/><linearGradient id="h" x1="2697.82" y1="-624.22" x2="2732.58" y2="-624.22" xlink:href="#d"/><linearGradient id="i" x1="2697.82" y1="-612.27" x2="2732.58" y2="-612.27" xlink:href="#d"/></defs><circle class="k" cx="75" cy="75" r="74"/><rect class="l" x="70.17" y="34.5" width="9.66" height="3" transform="translate(150 72) rotate(-180)"/><rect class="j" x="57.62" y="112.47" width="34.76" height="2.17"/><rect class="j" x="57.62" y="99.43" width="34.76" height="4.34"/><rect class="j" x="57.62" y="86.4" width="34.76" height="6.52"/><rect class="j" x="57.62" y="73.36" width="34.76" height="8.69"/><rect class="j" x="57.62" y="60.33" width="34.76" height="10.86"/><polygon class="o" points="92.38 92.91 57.62 103.78 57.62 99.43 92.38 86.4 92.38 92.91"/><polygon class="m" points="92.38 82.05 57.62 92.91 57.62 86.4 92.38 73.36 92.38 82.05"/><polygon class="n" points="92.38 71.19 57.62 82.05 57.62 73.36 92.38 60.33 92.38 71.19"/><polygon class="r" points="92.38 60.33 57.62 71.19 57.62 36.43 92.38 36.43 92.38 60.33"/><polygon class="q" points="92.38 103.78 57.62 114.64 57.62 112.47 92.38 99.43 92.38 103.78"/><polygon class="p" points="92.38 114.64 57.62 125.5 92.38 112.47 92.38 114.64"/></svg>
