<?xml version="1.0" encoding="UTF-8" standalone="no"?>
<svg
   width="130.177517pt"
   height="73.732498pt"
   viewBox="0 0 130.177517 73.732498"
   version="1.1"
   id="svg139"
   sodipodi:docname="logo-farger.svg"
   inkscape:version="1.3.2 (091e20e, 2023-11-25)"
   xmlns:inkscape="http://www.inkscape.org/namespaces/inkscape"
   xmlns:sodipodi="http://sodipodi.sourceforge.net/DTD/sodipodi-0.dtd"
   xmlns="http://www.w3.org/2000/svg"
   xmlns:svg="http://www.w3.org/2000/svg">
  <sodipodi:namedview
     id="namedview139"
     pagecolor="#ffffff"
     bordercolor="#000000"
     borderopacity="0.25"
     inkscape:showpageshadow="2"
     inkscape:pageopacity="0.0"
     inkscape:pagecheckerboard="0"
     inkscape:deskcolor="#d1d1d1"
     inkscape:document-units="pt"
     inkscape:zoom="2.4005697"
     inkscape:cx="86.854383"
     inkscape:cy="49.154999"
     inkscape:window-width="1312"
     inkscape:window-height="449"
     inkscape:window-x="0"
     inkscape:window-y="25"
     inkscape:window-maximized="0"
     inkscape:current-layer="svg139" />
  <defs
     id="defs127">
    <clipPath
       id="clip-0">
      <path
         clip-rule="nonzero"
         d="M 0 51 L 3 51 L 3 73.734375 L 0 73.734375 Z M 0 51 "
         id="path1" />
    </clipPath>
    <clipPath
       id="clip-1">
      <path
         clip-rule="nonzero"
         d="M 7 57 L 20 57 L 20 73.734375 L 7 73.734375 Z M 7 57 "
         id="path2" />
    </clipPath>
    <clipPath
       id="clip-2">
      <path
         clip-rule="nonzero"
         d="M 21 54 L 31 54 L 31 73.734375 L 21 73.734375 Z M 21 54 "
         id="path3" />
    </clipPath>
    <clipPath
       id="clip-3">
      <path
         clip-rule="nonzero"
         d="M 33 57 L 46 57 L 46 73.734375 L 33 73.734375 Z M 33 57 "
         id="path4" />
    </clipPath>
    <clipPath
       id="clip-4">
      <path
         clip-rule="nonzero"
         d="M 49 51 L 53 51 L 53 73.734375 L 49 73.734375 Z M 49 51 "
         id="path5" />
    </clipPath>
    <clipPath
       id="clip-5">
      <path
         clip-rule="nonzero"
         d="M 56 51 L 68 51 L 68 73.734375 L 56 73.734375 Z M 56 51 "
         id="path6" />
    </clipPath>
    <clipPath
       id="clip-6">
      <path
         clip-rule="nonzero"
         d="M 69 51 L 72 51 L 72 73.734375 L 69 73.734375 Z M 69 51 "
         id="path7" />
    </clipPath>
    <clipPath
       id="clip-7">
      <path
         clip-rule="nonzero"
         d="M 75 53 L 89 53 L 89 73.734375 L 75 73.734375 Z M 75 53 "
         id="path8" />
    </clipPath>
    <clipPath
       id="clip-8">
      <path
         clip-rule="nonzero"
         d="M 91 57 L 104 57 L 104 73.734375 L 91 73.734375 Z M 91 57 "
         id="path9" />
    </clipPath>
    <clipPath
       id="clip-9">
      <path
         clip-rule="nonzero"
         d="M 107 57 L 119 57 L 119 73.734375 L 107 73.734375 Z M 107 57 "
         id="path10" />
    </clipPath>
    <clipPath
       id="clip-10">
      <path
         clip-rule="nonzero"
         d="M 120 51 L 130.175781 51 L 130.175781 73.734375 L 120 73.734375 Z M 120 51 "
         id="path11" />
    </clipPath>
    <clipPath
       id="clip-11">
      <path
         clip-rule="nonzero"
         d="M 28 0 L 107 0 L 107 45 L 28 45 Z M 28 0 "
         id="path12" />
    </clipPath>
    <clipPath
       id="clip-12">
      <path
         clip-rule="nonzero"
         d="M 53.738281 3.074219 C 36.546875 10.367188 29.484375 31.105469 28.078125 38.054688 C 28.019531 38.339844 28.417969 38.476562 28.539062 38.214844 C 32.160156 30.128906 41.851562 12.660156 59.707031 7.546875 C 60.148438 7.417969 60.570312 7.824219 60.464844 8.265625 C 60.058594 10.042969 59.203125 13.855469 58.695312 16.6875 C 58.695312 16.6875 70.507812 10.285156 87.195312 13.019531 C 87.335938 13.042969 87.335938 13.261719 87.195312 13.269531 C 82.71875 13.628906 64.84375 15.832031 51.523438 28.710938 C 51.277344 28.949219 50.878906 28.761719 50.917969 28.425781 C 51.179688 26.199219 51.878906 20.738281 52.859375 17.28125 C 52.859375 17.28125 45.015625 21.1875 38.4375 35.445312 L 38.753906 35.738281 C 62.113281 54.945312 78.691406 38.796875 89.023438 28.621094 C 97.125 20.648438 103.425781 17.851562 105.78125 17.011719 C 106.207031 16.859375 106.304688 16.296875 105.953125 16.011719 C 91.53125 4.164062 72.878906 -5.039062 53.738281 3.074219 Z M 53.738281 3.074219 "
         id="path13" />
    </clipPath>
    <linearGradient
       id="linear-pattern-0"
       gradientUnits="userSpaceOnUse"
       x1="282.630694"
       y1="166.1105"
       x2="203.90243"
       y2="296.072437"
       gradientTransform="matrix(0.708712, 0.245413, -0.245413, 0.708712, -52.395, -200.661376)">
      <stop
         offset="0"
         stop-color="rgb(59.606934%, 76.861572%, 33.332825%)"
         stop-opacity="1"
         id="stop13" />
      <stop
         offset="0.25"
         stop-color="rgb(59.606934%, 76.861572%, 33.332825%)"
         stop-opacity="1"
         id="stop14" />
      <stop
         offset="0.257812"
         stop-color="rgb(59.460449%, 76.780701%, 33.319092%)"
         stop-opacity="1"
         id="stop15" />
      <stop
         offset="0.261719"
         stop-color="rgb(58.985901%, 76.51825%, 33.277893%)"
         stop-opacity="1"
         id="stop16" />
      <stop
         offset="0.265625"
         stop-color="rgb(58.659363%, 76.33667%, 33.250427%)"
         stop-opacity="1"
         id="stop17" />
      <stop
         offset="0.269531"
         stop-color="rgb(58.332825%, 76.15509%, 33.221436%)"
         stop-opacity="1"
         id="stop18" />
      <stop
         offset="0.273438"
         stop-color="rgb(58.006287%, 75.975037%, 33.19397%)"
         stop-opacity="1"
         id="stop19" />
      <stop
         offset="0.277344"
         stop-color="rgb(57.679749%, 75.793457%, 33.164978%)"
         stop-opacity="1"
         id="stop20" />
      <stop
         offset="0.28125"
         stop-color="rgb(57.35321%, 75.611877%, 33.135986%)"
         stop-opacity="1"
         id="stop21" />
      <stop
         offset="0.285156"
         stop-color="rgb(57.026672%, 75.430298%, 33.106995%)"
         stop-opacity="1"
         id="stop22" />
      <stop
         offset="0.289062"
         stop-color="rgb(56.700134%, 75.250244%, 33.079529%)"
         stop-opacity="1"
         id="stop23" />
      <stop
         offset="0.292969"
         stop-color="rgb(56.37207%, 75.068665%, 33.050537%)"
         stop-opacity="1"
         id="stop24" />
      <stop
         offset="0.296875"
         stop-color="rgb(56.045532%, 74.888611%, 33.023071%)"
         stop-opacity="1"
         id="stop25" />
      <stop
         offset="0.300781"
         stop-color="rgb(55.718994%, 74.707031%, 32.99408%)"
         stop-opacity="1"
         id="stop26" />
      <stop
         offset="0.304688"
         stop-color="rgb(55.392456%, 74.525452%, 32.966614%)"
         stop-opacity="1"
         id="stop27" />
      <stop
         offset="0.308594"
         stop-color="rgb(55.065918%, 74.343872%, 32.937622%)"
         stop-opacity="1"
         id="stop28" />
      <stop
         offset="0.3125"
         stop-color="rgb(54.73938%, 74.163818%, 32.90863%)"
         stop-opacity="1"
         id="stop29" />
      <stop
         offset="0.316406"
         stop-color="rgb(54.412842%, 73.982239%, 32.879639%)"
         stop-opacity="1"
         id="stop30" />
      <stop
         offset="0.320313"
         stop-color="rgb(54.086304%, 73.800659%, 32.852173%)"
         stop-opacity="1"
         id="stop31" />
      <stop
         offset="0.324219"
         stop-color="rgb(53.759766%, 73.61908%, 32.823181%)"
         stop-opacity="1"
         id="stop32" />
      <stop
         offset="0.328125"
         stop-color="rgb(53.433228%, 73.439026%, 32.795715%)"
         stop-opacity="1"
         id="stop33" />
      <stop
         offset="0.332031"
         stop-color="rgb(53.105164%, 73.257446%, 32.766724%)"
         stop-opacity="1"
         id="stop34" />
      <stop
         offset="0.335938"
         stop-color="rgb(52.778625%, 73.077393%, 32.739258%)"
         stop-opacity="1"
         id="stop35" />
      <stop
         offset="0.339844"
         stop-color="rgb(52.452087%, 72.895813%, 32.710266%)"
         stop-opacity="1"
         id="stop36" />
      <stop
         offset="0.34375"
         stop-color="rgb(52.125549%, 72.714233%, 32.681274%)"
         stop-opacity="1"
         id="stop37" />
      <stop
         offset="0.347656"
         stop-color="rgb(51.799011%, 72.532654%, 32.652283%)"
         stop-opacity="1"
         id="stop38" />
      <stop
         offset="0.351563"
         stop-color="rgb(51.472473%, 72.3526%, 32.624817%)"
         stop-opacity="1"
         id="stop39" />
      <stop
         offset="0.355469"
         stop-color="rgb(51.145935%, 72.171021%, 32.595825%)"
         stop-opacity="1"
         id="stop40" />
      <stop
         offset="0.359375"
         stop-color="rgb(50.819397%, 71.989441%, 32.568359%)"
         stop-opacity="1"
         id="stop41" />
      <stop
         offset="0.363281"
         stop-color="rgb(50.491333%, 71.807861%, 32.539368%)"
         stop-opacity="1"
         id="stop42" />
      <stop
         offset="0.367188"
         stop-color="rgb(50.164795%, 71.627808%, 32.511902%)"
         stop-opacity="1"
         id="stop43" />
      <stop
         offset="0.371094"
         stop-color="rgb(49.838257%, 71.446228%, 32.48291%)"
         stop-opacity="1"
         id="stop44" />
      <stop
         offset="0.375"
         stop-color="rgb(49.511719%, 71.266174%, 32.455444%)"
         stop-opacity="1"
         id="stop45" />
      <stop
         offset="0.378906"
         stop-color="rgb(49.185181%, 71.084595%, 32.426453%)"
         stop-opacity="1"
         id="stop46" />
      <stop
         offset="0.382813"
         stop-color="rgb(48.858643%, 70.903015%, 32.397461%)"
         stop-opacity="1"
         id="stop47" />
      <stop
         offset="0.386719"
         stop-color="rgb(48.532104%, 70.721436%, 32.368469%)"
         stop-opacity="1"
         id="stop48" />
      <stop
         offset="0.390625"
         stop-color="rgb(48.205566%, 70.541382%, 32.341003%)"
         stop-opacity="1"
         id="stop49" />
      <stop
         offset="0.394531"
         stop-color="rgb(47.877502%, 70.359802%, 32.312012%)"
         stop-opacity="1"
         id="stop50" />
      <stop
         offset="0.398438"
         stop-color="rgb(47.550964%, 70.179749%, 32.284546%)"
         stop-opacity="1"
         id="stop51" />
      <stop
         offset="0.402344"
         stop-color="rgb(47.224426%, 69.998169%, 32.255554%)"
         stop-opacity="1"
         id="stop52" />
      <stop
         offset="0.40625"
         stop-color="rgb(46.897888%, 69.816589%, 32.228088%)"
         stop-opacity="1"
         id="stop53" />
      <stop
         offset="0.410156"
         stop-color="rgb(46.57135%, 69.63501%, 32.199097%)"
         stop-opacity="1"
         id="stop54" />
      <stop
         offset="0.414063"
         stop-color="rgb(46.244812%, 69.454956%, 32.170105%)"
         stop-opacity="1"
         id="stop55" />
      <stop
         offset="0.417969"
         stop-color="rgb(45.918274%, 69.273376%, 32.141113%)"
         stop-opacity="1"
         id="stop56" />
      <stop
         offset="0.421875"
         stop-color="rgb(45.591736%, 69.091797%, 32.113647%)"
         stop-opacity="1"
         id="stop57" />
      <stop
         offset="0.425781"
         stop-color="rgb(45.263672%, 68.910217%, 32.084656%)"
         stop-opacity="1"
         id="stop58" />
      <stop
         offset="0.429688"
         stop-color="rgb(44.937134%, 68.730164%, 32.05719%)"
         stop-opacity="1"
         id="stop59" />
      <stop
         offset="0.433594"
         stop-color="rgb(44.610596%, 68.548584%, 32.028198%)"
         stop-opacity="1"
         id="stop60" />
      <stop
         offset="0.4375"
         stop-color="rgb(44.284058%, 68.36853%, 32.000732%)"
         stop-opacity="1"
         id="stop61" />
      <stop
         offset="0.441406"
         stop-color="rgb(43.95752%, 68.186951%, 31.971741%)"
         stop-opacity="1"
         id="stop62" />
      <stop
         offset="0.445312"
         stop-color="rgb(43.630981%, 68.005371%, 31.942749%)"
         stop-opacity="1"
         id="stop63" />
      <stop
         offset="0.449219"
         stop-color="rgb(43.304443%, 67.823792%, 31.913757%)"
         stop-opacity="1"
         id="stop64" />
      <stop
         offset="0.453125"
         stop-color="rgb(42.977905%, 67.643738%, 31.886292%)"
         stop-opacity="1"
         id="stop65" />
      <stop
         offset="0.457031"
         stop-color="rgb(42.651367%, 67.462158%, 31.8573%)"
         stop-opacity="1"
         id="stop66" />
      <stop
         offset="0.460938"
         stop-color="rgb(42.324829%, 67.280579%, 31.829834%)"
         stop-opacity="1"
         id="stop67" />
      <stop
         offset="0.464844"
         stop-color="rgb(41.996765%, 67.098999%, 31.800842%)"
         stop-opacity="1"
         id="stop68" />
      <stop
         offset="0.46875"
         stop-color="rgb(41.670227%, 66.918945%, 31.773376%)"
         stop-opacity="1"
         id="stop69" />
      <stop
         offset="0.472656"
         stop-color="rgb(41.343689%, 66.737366%, 31.744385%)"
         stop-opacity="1"
         id="stop70" />
      <stop
         offset="0.476563"
         stop-color="rgb(41.017151%, 66.557312%, 31.715393%)"
         stop-opacity="1"
         id="stop71" />
      <stop
         offset="0.480469"
         stop-color="rgb(40.690613%, 66.375732%, 31.686401%)"
         stop-opacity="1"
         id="stop72" />
      <stop
         offset="0.484375"
         stop-color="rgb(40.364075%, 66.194153%, 31.658936%)"
         stop-opacity="1"
         id="stop73" />
      <stop
         offset="0.488281"
         stop-color="rgb(40.037537%, 66.012573%, 31.629944%)"
         stop-opacity="1"
         id="stop74" />
      <stop
         offset="0.492188"
         stop-color="rgb(39.710999%, 65.83252%, 31.602478%)"
         stop-opacity="1"
         id="stop75" />
      <stop
         offset="0.496094"
         stop-color="rgb(39.382935%, 65.65094%, 31.573486%)"
         stop-opacity="1"
         id="stop76" />
      <stop
         offset="0.5"
         stop-color="rgb(39.056396%, 65.46936%, 31.546021%)"
         stop-opacity="1"
         id="stop77" />
      <stop
         offset="0.503906"
         stop-color="rgb(38.729858%, 65.287781%, 31.517029%)"
         stop-opacity="1"
         id="stop78" />
      <stop
         offset="0.507813"
         stop-color="rgb(38.40332%, 65.107727%, 31.488037%)"
         stop-opacity="1"
         id="stop79" />
      <stop
         offset="0.511719"
         stop-color="rgb(38.076782%, 64.926147%, 31.459045%)"
         stop-opacity="1"
         id="stop80" />
      <stop
         offset="0.515625"
         stop-color="rgb(37.750244%, 64.746094%, 31.43158%)"
         stop-opacity="1"
         id="stop81" />
      <stop
         offset="0.519531"
         stop-color="rgb(37.423706%, 64.564514%, 31.402588%)"
         stop-opacity="1"
         id="stop82" />
      <stop
         offset="0.523438"
         stop-color="rgb(37.097168%, 64.382935%, 31.375122%)"
         stop-opacity="1"
         id="stop83" />
      <stop
         offset="0.527344"
         stop-color="rgb(36.769104%, 64.201355%, 31.34613%)"
         stop-opacity="1"
         id="stop84" />
      <stop
         offset="0.53125"
         stop-color="rgb(36.442566%, 64.021301%, 31.318665%)"
         stop-opacity="1"
         id="stop85" />
      <stop
         offset="0.535156"
         stop-color="rgb(36.116028%, 63.839722%, 31.289673%)"
         stop-opacity="1"
         id="stop86" />
      <stop
         offset="0.539062"
         stop-color="rgb(35.78949%, 63.658142%, 31.262207%)"
         stop-opacity="1"
         id="stop87" />
      <stop
         offset="0.542969"
         stop-color="rgb(35.462952%, 63.476562%, 31.233215%)"
         stop-opacity="1"
         id="stop88" />
      <stop
         offset="0.546875"
         stop-color="rgb(35.136414%, 63.296509%, 31.204224%)"
         stop-opacity="1"
         id="stop89" />
      <stop
         offset="0.550781"
         stop-color="rgb(34.809875%, 63.114929%, 31.175232%)"
         stop-opacity="1"
         id="stop90" />
      <stop
         offset="0.554688"
         stop-color="rgb(34.483337%, 62.934875%, 31.147766%)"
         stop-opacity="1"
         id="stop91" />
      <stop
         offset="0.558594"
         stop-color="rgb(34.156799%, 62.753296%, 31.118774%)"
         stop-opacity="1"
         id="stop92" />
      <stop
         offset="0.5625"
         stop-color="rgb(33.830261%, 62.571716%, 31.091309%)"
         stop-opacity="1"
         id="stop93" />
      <stop
         offset="0.566406"
         stop-color="rgb(33.502197%, 62.390137%, 31.062317%)"
         stop-opacity="1"
         id="stop94" />
      <stop
         offset="0.570312"
         stop-color="rgb(33.175659%, 62.210083%, 31.034851%)"
         stop-opacity="1"
         id="stop95" />
      <stop
         offset="0.574219"
         stop-color="rgb(32.849121%, 62.028503%, 31.005859%)"
         stop-opacity="1"
         id="stop96" />
      <stop
         offset="0.578125"
         stop-color="rgb(32.522583%, 61.84845%, 30.976868%)"
         stop-opacity="1"
         id="stop97" />
      <stop
         offset="0.582031"
         stop-color="rgb(32.196045%, 61.66687%, 30.947876%)"
         stop-opacity="1"
         id="stop98" />
      <stop
         offset="0.585938"
         stop-color="rgb(31.869507%, 61.485291%, 30.92041%)"
         stop-opacity="1"
         id="stop99" />
      <stop
         offset="0.589844"
         stop-color="rgb(31.542969%, 61.303711%, 30.891418%)"
         stop-opacity="1"
         id="stop100" />
      <stop
         offset="0.59375"
         stop-color="rgb(31.216431%, 61.123657%, 30.863953%)"
         stop-opacity="1"
         id="stop101" />
      <stop
         offset="0.597656"
         stop-color="rgb(30.888367%, 60.942078%, 30.834961%)"
         stop-opacity="1"
         id="stop102" />
      <stop
         offset="0.601562"
         stop-color="rgb(30.561829%, 60.760498%, 30.807495%)"
         stop-opacity="1"
         id="stop103" />
      <stop
         offset="0.605469"
         stop-color="rgb(30.235291%, 60.578918%, 30.778503%)"
         stop-opacity="1"
         id="stop104" />
      <stop
         offset="0.609375"
         stop-color="rgb(29.908752%, 60.398865%, 30.749512%)"
         stop-opacity="1"
         id="stop105" />
      <stop
         offset="0.613281"
         stop-color="rgb(29.582214%, 60.217285%, 30.72052%)"
         stop-opacity="1"
         id="stop106" />
      <stop
         offset="0.617188"
         stop-color="rgb(29.255676%, 60.037231%, 30.693054%)"
         stop-opacity="1"
         id="stop107" />
      <stop
         offset="0.621094"
         stop-color="rgb(28.929138%, 59.855652%, 30.664062%)"
         stop-opacity="1"
         id="stop108" />
      <stop
         offset="0.625"
         stop-color="rgb(28.6026%, 59.674072%, 30.636597%)"
         stop-opacity="1"
         id="stop109" />
      <stop
         offset="0.628906"
         stop-color="rgb(28.274536%, 59.492493%, 30.607605%)"
         stop-opacity="1"
         id="stop110" />
      <stop
         offset="0.632813"
         stop-color="rgb(27.947998%, 59.312439%, 30.580139%)"
         stop-opacity="1"
         id="stop111" />
      <stop
         offset="0.636719"
         stop-color="rgb(27.62146%, 59.130859%, 30.551147%)"
         stop-opacity="1"
         id="stop112" />
      <stop
         offset="0.640625"
         stop-color="rgb(27.294922%, 58.94928%, 30.522156%)"
         stop-opacity="1"
         id="stop113" />
      <stop
         offset="0.644531"
         stop-color="rgb(26.968384%, 58.7677%, 30.493164%)"
         stop-opacity="1"
         id="stop114" />
      <stop
         offset="0.648438"
         stop-color="rgb(26.641846%, 58.587646%, 30.465698%)"
         stop-opacity="1"
         id="stop115" />
      <stop
         offset="0.652344"
         stop-color="rgb(26.315308%, 58.406067%, 30.436707%)"
         stop-opacity="1"
         id="stop116" />
      <stop
         offset="0.65625"
         stop-color="rgb(25.98877%, 58.226013%, 30.409241%)"
         stop-opacity="1"
         id="stop117" />
      <stop
         offset="0.660156"
         stop-color="rgb(25.660706%, 58.044434%, 30.380249%)"
         stop-opacity="1"
         id="stop118" />
      <stop
         offset="0.664062"
         stop-color="rgb(25.334167%, 57.862854%, 30.352783%)"
         stop-opacity="1"
         id="stop119" />
      <stop
         offset="0.667969"
         stop-color="rgb(25.007629%, 57.681274%, 30.323792%)"
         stop-opacity="1"
         id="stop120" />
      <stop
         offset="0.671875"
         stop-color="rgb(24.681091%, 57.501221%, 30.296326%)"
         stop-opacity="1"
         id="stop121" />
      <stop
         offset="0.675781"
         stop-color="rgb(24.354553%, 57.319641%, 30.267334%)"
         stop-opacity="1"
         id="stop122" />
      <stop
         offset="0.679688"
         stop-color="rgb(24.028015%, 57.138062%, 30.238342%)"
         stop-opacity="1"
         id="stop123" />
      <stop
         offset="0.683594"
         stop-color="rgb(23.777771%, 56.999207%, 30.21698%)"
         stop-opacity="1"
         id="stop124" />
      <stop
         offset="0.6875"
         stop-color="rgb(23.529053%, 56.861877%, 30.195618%)"
         stop-opacity="1"
         id="stop125" />
      <stop
         offset="0.75"
         stop-color="rgb(23.529053%, 56.861877%, 30.195618%)"
         stop-opacity="1"
         id="stop126" />
      <stop
         offset="1"
         stop-color="rgb(23.529053%, 56.861877%, 30.195618%)"
         stop-opacity="1"
         id="stop127" />
    </linearGradient>
  </defs>
  <g
     clip-path="url(#clip-0)"
     id="g127">
    <path
       fill-rule="nonzero"
       fill="rgb(23.529053%, 56.861877%, 30.195618%)"
       fill-opacity="1"
       d="M 2.296875 52.214844 L 2.296875 73.296875 C 2.296875 73.589844 2.144531 73.742188 1.851562 73.742188 L 0.441406 73.742188 C 0.148438 73.742188 0 73.589844 0 73.296875 L 0 52.214844 C 0 51.921875 0.140625 51.773438 0.441406 51.773438 L 1.859375 51.773438 C 2.152344 51.773438 2.300781 51.921875 2.300781 52.214844 Z M 2.296875 52.214844 "
       id="path127" />
  </g>
  <g
     clip-path="url(#clip-1)"
     id="g128">
    <path
       fill-rule="nonzero"
       fill="rgb(23.529053%, 56.861877%, 30.195618%)"
       fill-opacity="1"
       d="M 8.976562 73.734375 L 7.558594 73.734375 C 7.265625 73.734375 7.117188 73.582031 7.117188 73.292969 L 7.117188 58.109375 C 7.117188 57.820312 7.265625 57.667969 7.558594 57.667969 L 8.976562 57.667969 C 9.269531 57.667969 9.421875 57.820312 9.421875 58.109375 L 9.421875 59.339844 L 9.546875 59.339844 C 10.074219 58.230469 11.144531 57.667969 12.757812 57.667969 L 14.519531 57.667969 C 15.945312 57.667969 17.0625 58.082031 17.859375 58.898438 C 18.652344 59.714844 19.058594 60.863281 19.058594 62.332031 L 19.058594 73.292969 C 19.058594 73.582031 18.90625 73.734375 18.613281 73.734375 L 17.199219 73.734375 C 16.90625 73.734375 16.753906 73.582031 16.753906 73.292969 L 16.753906 62.421875 C 16.753906 60.59375 15.871094 59.6875 14.109375 59.6875 L 12.34375 59.6875 C 11.398438 59.6875 10.679688 59.941406 10.171875 60.445312 C 9.660156 60.945312 9.414062 61.660156 9.414062 62.589844 L 9.414062 73.296875 C 9.414062 73.589844 9.261719 73.742188 8.96875 73.742188 Z M 8.976562 73.734375 "
       id="path128" />
  </g>
  <g
     clip-path="url(#clip-2)"
     id="g129">
    <path
       fill-rule="nonzero"
       fill="rgb(23.529053%, 56.861877%, 30.195618%)"
       fill-opacity="1"
       d="M 23.835938 59.6875 L 22.101562 59.6875 C 21.808594 59.6875 21.660156 59.550781 21.660156 59.273438 L 21.660156 58.109375 C 21.660156 57.820312 21.800781 57.667969 22.101562 57.667969 L 23.835938 57.667969 C 24.046875 57.667969 24.148438 57.570312 24.148438 57.382812 L 24.148438 54.675781 C 24.148438 54.382812 24.300781 54.234375 24.59375 54.234375 L 26.011719 54.234375 C 26.28125 54.234375 26.421875 54.382812 26.421875 54.675781 L 26.421875 57.382812 C 26.421875 57.570312 26.535156 57.667969 26.765625 57.667969 L 30.105469 57.667969 C 30.421875 57.667969 30.578125 57.820312 30.578125 58.109375 L 30.578125 59.273438 C 30.578125 59.542969 30.421875 59.6875 30.105469 59.6875 L 26.765625 59.6875 C 26.535156 59.6875 26.421875 59.785156 26.421875 59.972656 L 26.421875 69.039062 C 26.421875 70.824219 27.34375 71.714844 29.199219 71.714844 L 30.425781 71.714844 C 30.742188 71.714844 30.898438 71.867188 30.898438 72.160156 L 30.898438 73.320312 C 30.898438 73.589844 30.742188 73.734375 30.425781 73.734375 L 28.921875 73.734375 C 27.472656 73.734375 26.316406 73.328125 25.453125 72.519531 C 24.59375 71.707031 24.164062 70.582031 24.164062 69.136719 L 24.164062 59.972656 C 24.164062 59.785156 24.058594 59.6875 23.851562 59.6875 Z M 23.835938 59.6875 "
       id="path129" />
  </g>
  <g
     clip-path="url(#clip-3)"
     id="g130">
    <path
       fill-rule="nonzero"
       fill="rgb(23.529053%, 56.861877%, 30.195618%)"
       fill-opacity="1"
       d="M 45.253906 73.734375 L 38.578125 73.734375 C 37.132812 73.734375 35.992188 73.320312 35.160156 72.503906 C 34.328125 71.6875 33.914062 70.539062 33.914062 69.070312 L 33.914062 62.324219 C 33.914062 60.855469 34.328125 59.707031 35.160156 58.890625 C 35.992188 58.074219 37.125 57.660156 38.578125 57.660156 L 41.226562 57.660156 C 42.675781 57.660156 43.808594 58.074219 44.625 58.890625 C 45.441406 59.707031 45.855469 60.855469 45.855469 62.324219 L 45.855469 66.324219 C 45.855469 66.636719 45.703125 66.796875 45.414062 66.796875 L 36.503906 66.796875 C 36.292969 66.796875 36.1875 66.894531 36.1875 67.082031 L 36.1875 69 C 36.1875 70.832031 37.074219 71.738281 38.835938 71.738281 L 45.261719 71.738281 C 45.554688 71.738281 45.703125 71.886719 45.703125 72.179688 L 45.703125 73.3125 C 45.703125 73.582031 45.554688 73.726562 45.261719 73.726562 Z M 36.503906 65.136719 L 43.304688 65.136719 C 43.515625 65.136719 43.621094 65.035156 43.621094 64.824219 L 43.621094 62.402344 C 43.621094 60.59375 42.734375 59.695312 40.972656 59.695312 L 38.828125 59.695312 C 37.066406 59.695312 36.179688 60.59375 36.179688 62.402344 L 36.179688 64.824219 C 36.179688 65.035156 36.285156 65.136719 36.496094 65.136719 Z M 36.503906 65.136719 "
       id="path130" />
  </g>
  <g
     clip-path="url(#clip-4)"
     id="g131">
    <path
       fill-rule="nonzero"
       fill="rgb(23.529053%, 56.861877%, 30.195618%)"
       fill-opacity="1"
       d="M 51.734375 73.734375 L 50.316406 73.734375 C 50.023438 73.734375 49.875 73.582031 49.875 73.292969 L 49.875 52.035156 C 49.875 51.742188 50.023438 51.59375 50.316406 51.59375 L 51.734375 51.59375 C 52.027344 51.59375 52.175781 51.742188 52.175781 52.035156 L 52.175781 73.292969 C 52.175781 73.582031 52.027344 73.734375 51.734375 73.734375 Z M 51.734375 73.734375 "
       id="path131" />
  </g>
  <g
     clip-path="url(#clip-5)"
     id="g132">
    <path
       fill-rule="nonzero"
       fill="rgb(13.33313%, 12.156677%, 12.548828%)"
       fill-opacity="1"
       d="M 66.9375 73.734375 L 56.828125 73.734375 C 56.535156 73.734375 56.386719 73.582031 56.386719 73.292969 L 56.386719 52.082031 C 56.386719 51.789062 56.535156 51.636719 56.828125 51.636719 L 58.246094 51.636719 C 58.539062 51.636719 58.6875 51.789062 58.6875 52.082031 L 58.6875 71.371094 C 58.6875 71.558594 58.792969 71.65625 59.003906 71.65625 L 66.9375 71.65625 C 67.230469 71.65625 67.378906 71.8125 67.378906 72.128906 L 67.378906 73.292969 C 67.378906 73.582031 67.230469 73.734375 66.9375 73.734375 Z M 66.9375 73.734375 "
       id="path132" />
  </g>
  <g
     clip-path="url(#clip-6)"
     id="g133">
    <path
       fill-rule="nonzero"
       fill="rgb(13.33313%, 12.156677%, 12.548828%)"
       fill-opacity="1"
       d="M 69.324219 55.027344 L 69.324219 52.066406 C 69.324219 51.773438 69.457031 51.625 69.734375 51.625 L 71.183594 51.625 C 71.476562 51.625 71.625 51.773438 71.625 52.066406 L 71.625 55.027344 C 71.625 55.320312 71.476562 55.472656 71.183594 55.472656 L 69.734375 55.472656 C 69.464844 55.472656 69.324219 55.320312 69.324219 55.027344 Z M 69.324219 73.292969 L 69.324219 58.109375 C 69.324219 57.820312 69.457031 57.667969 69.734375 57.667969 L 71.183594 57.667969 C 71.476562 57.667969 71.625 57.820312 71.625 58.109375 L 71.625 73.292969 C 71.625 73.582031 71.476562 73.734375 71.183594 73.734375 L 69.765625 73.734375 C 69.472656 73.734375 69.324219 73.582031 69.324219 73.292969 Z M 69.324219 73.292969 "
       id="path133" />
  </g>
  <g
     clip-path="url(#clip-7)"
     id="g134">
    <path
       fill-rule="nonzero"
       fill="rgb(23.529053%, 56.861877%, 30.195618%)"
       fill-opacity="1"
       d="M 83.761719 73.734375 L 80.363281 73.734375 C 78.914062 73.734375 77.773438 73.320312 76.949219 72.503906 C 76.117188 71.6875 75.703125 70.539062 75.703125 69.070312 L 75.703125 58.140625 C 75.703125 56.671875 76.117188 55.523438 76.949219 54.707031 C 77.773438 53.886719 78.914062 53.476562 80.363281 53.476562 L 83.761719 53.476562 C 85.207031 53.476562 86.339844 53.886719 87.15625 54.722656 C 87.976562 55.554688 88.386719 56.6875 88.386719 58.140625 L 88.386719 59.429688 C 88.386719 59.746094 88.238281 59.902344 87.945312 59.902344 L 86.527344 59.902344 C 86.234375 59.902344 86.085938 59.746094 86.085938 59.429688 L 86.085938 58.230469 C 86.085938 56.402344 85.214844 55.492188 83.46875 55.492188 L 80.601562 55.492188 C 78.863281 55.492188 77.984375 56.410156 77.984375 58.230469 L 77.984375 68.972656 C 77.984375 70.800781 78.855469 71.707031 80.601562 71.707031 L 83.46875 71.707031 C 85.207031 71.707031 86.085938 70.792969 86.085938 68.972656 L 86.085938 65.445312 C 86.085938 65.234375 85.988281 65.132812 85.800781 65.132812 L 82.679688 65.132812 C 82.386719 65.132812 82.238281 64.996094 82.238281 64.71875 L 82.238281 63.554688 C 82.238281 63.261719 82.386719 63.113281 82.679688 63.113281 L 87.75 63.113281 C 88.171875 63.113281 88.378906 63.332031 88.378906 63.773438 L 88.378906 69.0625 C 88.378906 70.53125 87.96875 71.679688 87.148438 72.496094 C 86.332031 73.3125 85.199219 73.726562 83.753906 73.726562 Z M 83.761719 73.734375 "
       id="path134" />
  </g>
  <g
     clip-path="url(#clip-8)"
     id="g135">
    <path
       fill-rule="nonzero"
       fill="rgb(23.529053%, 56.861877%, 30.195618%)"
       fill-opacity="1"
       d="M 103.148438 73.734375 L 96.472656 73.734375 C 95.023438 73.734375 93.886719 73.320312 93.050781 72.503906 C 92.21875 71.6875 91.808594 70.539062 91.808594 69.070312 L 91.808594 62.324219 C 91.808594 60.855469 92.21875 59.707031 93.050781 58.890625 C 93.886719 58.074219 95.015625 57.660156 96.472656 57.660156 L 99.121094 57.660156 C 100.566406 57.660156 101.699219 58.074219 102.515625 58.890625 C 103.335938 59.707031 103.746094 60.855469 103.746094 62.324219 L 103.746094 66.324219 C 103.746094 66.636719 103.597656 66.796875 103.304688 66.796875 L 94.394531 66.796875 C 94.183594 66.796875 94.078125 66.894531 94.078125 67.082031 L 94.078125 69 C 94.078125 70.832031 94.964844 71.738281 96.726562 71.738281 L 103.15625 71.738281 C 103.449219 71.738281 103.597656 71.886719 103.597656 72.179688 L 103.597656 73.3125 C 103.597656 73.582031 103.449219 73.726562 103.15625 73.726562 Z M 94.394531 65.136719 L 101.199219 65.136719 C 101.40625 65.136719 101.511719 65.035156 101.511719 64.824219 L 101.511719 62.402344 C 101.511719 60.59375 100.628906 59.695312 98.863281 59.695312 L 96.71875 59.695312 C 94.957031 59.695312 94.074219 60.59375 94.074219 62.402344 L 94.074219 64.824219 C 94.074219 65.035156 94.175781 65.136719 94.386719 65.136719 Z M 94.394531 65.136719 "
       id="path135" />
  </g>
  <g
     clip-path="url(#clip-9)"
     id="g136">
    <path
       fill-rule="nonzero"
       fill="rgb(23.529053%, 56.861877%, 30.195618%)"
       fill-opacity="1"
       d="M 108.871094 73.734375 L 107.453125 73.734375 C 107.160156 73.734375 107.011719 73.582031 107.011719 73.292969 L 107.011719 58.109375 C 107.011719 57.820312 107.160156 57.667969 107.453125 57.667969 L 108.871094 57.667969 C 109.164062 57.667969 109.3125 57.820312 109.3125 58.109375 L 109.3125 59.339844 L 109.441406 59.339844 C 109.964844 58.230469 111.039062 57.667969 112.648438 57.667969 L 114.414062 57.667969 C 115.835938 57.667969 116.953125 58.082031 117.75 58.898438 C 118.546875 59.714844 118.949219 60.863281 118.949219 62.332031 L 118.949219 73.292969 C 118.949219 73.582031 118.800781 73.734375 118.507812 73.734375 L 117.089844 73.734375 C 116.796875 73.734375 116.648438 73.582031 116.648438 73.292969 L 116.648438 62.421875 C 116.648438 60.59375 115.761719 59.6875 114 59.6875 L 112.238281 59.6875 C 111.292969 59.6875 110.574219 59.941406 110.0625 60.445312 C 109.550781 60.945312 109.304688 61.660156 109.304688 62.589844 L 109.304688 73.296875 C 109.304688 73.589844 109.15625 73.742188 108.863281 73.742188 Z M 108.871094 73.734375 "
       id="path136" />
  </g>
  <g
     clip-path="url(#clip-10)"
     id="g137">
    <path
       fill-rule="nonzero"
       fill="rgb(23.529053%, 56.861877%, 30.195618%)"
       fill-opacity="1"
       d="M 123.121094 59.6875 L 121.386719 59.6875 C 121.09375 59.6875 120.945312 59.550781 120.945312 59.273438 L 120.945312 58.109375 C 120.945312 57.820312 121.085938 57.667969 121.386719 57.667969 L 123.121094 57.667969 C 123.328125 57.667969 123.433594 57.570312 123.433594 57.382812 L 123.433594 51.804688 C 123.433594 51.511719 123.585938 51.359375 123.878906 51.359375 L 125.296875 51.359375 C 125.566406 51.359375 125.707031 51.511719 125.707031 51.804688 L 125.707031 57.382812 C 125.707031 57.570312 125.820312 57.667969 126.050781 57.667969 L 129.390625 57.667969 C 129.703125 57.667969 129.863281 57.820312 129.863281 58.109375 L 129.863281 59.273438 C 129.863281 59.542969 129.703125 59.6875 129.390625 59.6875 L 126.050781 59.6875 C 125.820312 59.6875 125.707031 59.785156 125.707031 59.972656 L 125.707031 69.039062 C 125.707031 70.824219 126.628906 71.714844 128.484375 71.714844 L 129.710938 71.714844 C 130.027344 71.714844 130.183594 71.867188 130.183594 72.160156 L 130.183594 73.320312 C 130.183594 73.589844 130.027344 73.734375 129.710938 73.734375 L 128.203125 73.734375 C 126.757812 73.734375 125.601562 73.328125 124.738281 72.519531 C 123.878906 71.707031 123.449219 70.582031 123.449219 69.136719 L 123.449219 59.972656 C 123.449219 59.785156 123.34375 59.6875 123.136719 59.6875 Z M 123.121094 59.6875 "
       id="path137" />
  </g>
  <g
     clip-path="url(#clip-11)"
     id="g139">
    <g
       clip-path="url(#clip-12)"
       id="g138">
      <path
         fill-rule="nonzero"
         fill="url(#linear-pattern-0)"
         d="M 36.402344 -24.207031 L 11.03125 49.0625 L 97.921875 79.152344 L 123.292969 5.882812 Z M 36.402344 -24.207031 "
         id="path138" />
    </g>
  </g>
</svg>
