<svg xmlns="http://www.w3.org/2000/svg" class="ukri-logo" viewBox="0 0 300 85"><path d="M0 0h85v85H0z" style="fill:#2e2d62"/><path d="M75.65 9.35h-9.92L52.41 23.54V9.35H33.16v18.84c0 4-3 6.37-6.95 6.37s-6.94-2.34-6.94-6.37V9.35H9.35v19c0 8.5 6.87 13.38 14.61 14.17H9.35v33.13h9.92V63.36h4.32l9.16 12.29h42.9V69H64V49.19h11.65v-8.74L61.44 25.9l14.21-14.5Zm-33.15 23v15.39c-2.11-3.57-7-5.22-14.17-5.24 6.43-.65 12.37-4.12 14.17-10.14ZM19.27 49.19h9.06c3.73 0 5.24 1.45 5.24 3.72s-1.51 3.76-5.24 3.76h-9.06ZM54.12 69H42.5v4.6l-8.18-10.72c6.23-1.15 9.44-4.37 9.44-10a11 11 0 0 0-.58-3.72h10.94Zm11.61-26.5H52.41V28.27Z" style="fill:#fff"/></svg>
